<?xml version="1.0" encoding="UTF-8" standalone="no"?>
<!DOCTYPE svg PUBLIC "-//W3C//DTD SVG 1.1//EN" "http://www.w3.org/Graphics/SVG/1.1/DTD/svg11.dtd">
<svg width="100%" height="100%" viewBox="-17.5 -17.5 70 70" version="1.1" xmlns="http://www.w3.org/2000/svg" xmlns:xlink="http://www.w3.org/1999/xlink" xml:space="preserve" xmlns:serif="http://www.serif.com/" style="fill-rule:evenodd;clip-rule:evenodd;stroke-linejoin:round;stroke-miterlimit:2;">
    <g transform="matrix(1,0,0,1,-0.581541,-0.752054)">
        <g transform="matrix(0.10772,0,0,0.10772,-13.64579,-60.138879)">
            <path d="M332.85,863.504C332.851,873.866 334.758,887.146 325.534,885.343C320.774,884.413 296.572,857.335 293.693,858.878C289.122,861.329 267.403,886.039 261.507,885.433C254.976,884.762 256.279,881.615 256.184,839.501C256.158,828.059 255.869,699.904 256.325,696.475C257.582,687.027 272.628,692.642 272.828,675.502C273.636,606.325 272.45,603.431 270.087,597.665C254.86,560.502 198.928,577.47 205.377,615.524C207.257,626.615 243.636,644.752 229.377,652.244C224.62,654.743 220.333,648.015 201.444,630.562C193.228,622.971 161.63,644.087 172.946,675.335C179.618,693.757 199.601,695.714 202.47,695.995C210.664,696.797 211.255,707.807 200.509,707.29C174.585,706.044 168.536,686.232 164.681,687.939C139.602,699.044 133.827,745.315 162.712,761.052C166.641,763.193 173.262,744.91 201.5,744.326C210.242,744.145 209.881,755.203 202.515,755.663C152.13,758.806 159.794,816.736 194.509,820.064C199.837,820.574 217.117,790.253 225.103,799.816C232.532,808.712 204.914,818.208 204.982,832.488C205.039,844.384 214.249,860.361 234.523,862.291C235.293,862.365 243.798,861.448 244.497,867.5C245.693,877.855 221.701,874.867 207.876,863.086C195.622,852.644 194.477,838.897 194.279,836.518C194.243,836.08 193.87,831.606 192.576,831.294C187.073,829.967 173.952,829.147 161.988,812.167C159.397,808.489 151.98,794.106 156.888,776.618C157.796,773.383 159.118,772.707 156.298,770.797C151.078,767.262 131.967,755.932 132.078,724.504C132.164,700.109 146.959,684.848 155.641,679.733C159.299,677.577 161.446,678.604 160.763,674.458C160.066,670.227 154.915,638.97 178.818,623.998C184.478,620.453 189.59,619.077 190.583,618.809C197.103,617.054 192.759,614.048 194.48,602.497C201.805,553.338 277.574,552.308 283.634,605.486C283.653,605.657 284.703,675.82 283.141,682.417C279.336,698.489 267.532,698.645 267.437,702.495C267.355,705.846 267.44,847.86 267.447,860.501C267.449,862.637 266.527,868.218 269.501,865.501C289.88,846.882 293.168,841.734 299.203,846.862C320.363,864.843 320.851,867.758 321.599,865.548C321.628,865.463 321.552,730.264 321.545,718.5C321.537,703.621 322.32,701.289 319.353,699.807C300.947,690.607 303.966,681.59 303.892,625.499C303.87,608.032 301.202,589.021 323.663,572.737C349.269,554.173 395.469,571.269 393.525,612.501C393.502,612.972 393.267,617.97 394.566,618.306C397.221,618.992 413.693,623.248 422.104,638.717C432.812,658.411 424.166,675.132 427.594,677.349C428.998,678.257 438.683,681.98 447.314,695.609C455.478,708.501 465.992,748.064 431.64,770.715C427.328,773.558 436.536,784.582 430.132,803.372C422.524,825.693 402.73,829.935 399.524,830.622C397.031,831.156 394.269,829.467 393.799,835.527C390.902,872.856 347.575,878.677 344.462,870.516C343.244,867.325 344.711,862.947 349.505,862.556C355.396,862.076 373.795,861.912 381.376,841.461C385.658,829.91 381.41,825.506 380.469,824.53C372.102,815.856 371.798,816.284 363.545,807.458C358.222,801.766 366.402,794.013 372.2,799.814C385.382,813.005 391.287,820.398 394.445,820.02C427.039,816.123 432.003,766.215 395.403,756.851C390.753,755.662 377.668,756.913 379.832,748.581C382.141,739.69 407.402,745.285 419.391,757.606C420.457,758.701 422.454,764.701 430.375,757.359C462.248,727.818 431.073,686.193 421.55,687.936C419.773,688.261 408.995,707.5 385.505,707.295C376.861,707.219 378.05,696.951 383.433,696.232C384.897,696.037 408.535,696.51 415.5,671.5C423.747,641.887 393.064,624.466 386.829,629.902C371.245,643.488 362.693,657.075 356.727,651.264C352.347,646.998 354.223,644.77 370.97,628.998C380.472,620.049 383.483,620.489 382.342,607.512C378.702,566.104 315.224,566.352 315.087,611.499C314.894,674.961 314.33,675.086 315.918,680.362C319.848,693.427 332.589,686.673 332.799,698.497C332.88,703.023 332.73,818.253 332.85,863.504Z"/>
        </g>
    </g>
</svg>
